<?xml version="1.0" standalone="no"?>
<!DOCTYPE svg PUBLIC "-//W3C//DTD SVG 20010904//EN"
 "http://www.w3.org/TR/2001/REC-SVG-20010904/DTD/svg10.dtd">
<svg version="1.0" xmlns="http://www.w3.org/2000/svg"
 width="200.000000pt" height="148.000000pt" viewBox="0 0 200.000000 148.000000"
 preserveAspectRatio="xMidYMid meet">

<g transform="translate(0.000000,148.000000) scale(0.100000,-0.100000)"
fill="#000000" stroke="none">
<path d="M0 1172 c0 -226 3 -311 12 -320 9 -9 9 -12 0 -12 -9 0 -12 -100 -12
-420 l0 -420 1000 0 1000 0 0 34 c0 19 -6 37 -12 39 -10 4 -10 6 0 6 9 1 12
148 12 701 l0 700 -1000 0 -1000 0 0 -308z m1173 281 c-24 -2 -62 -2 -85 0
-24 2 -5 4 42 4 47 0 66 -2 43 -4z m95 0 c-10 -2 -26 -2 -35 0 -10 3 -2 5 17
5 19 0 27 -2 18 -5z m-744 -153 c0 -61 3 -110 7 -110 4 0 9 -7 12 -14 4 -10 1
-13 -9 -9 -14 5 -15 -13 -11 -146 2 -83 1 -154 -4 -157 -4 -2 -8 119 -9 271 0
151 3 275 7 275 5 0 8 -50 7 -110z m128 -223 c2 -130 0 -237 -4 -237 -5 0 -7
129 -6 288 2 324 6 303 10 -51z m681 326 c-7 -2 -21 -2 -30 0 -10 3 -4 5 12 5
17 0 24 -2 18 -5z m94 -40 c-3 -10 -5 -4 -5 12 0 17 2 24 5 18 2 -7 2 -21 0
-30z m-17 7 c0 -5 -5 -10 -11 -10 -5 0 -7 5 -4 10 3 6 8 10 11 10 2 0 4 -4 4
-10z m-1120 -87 c0 -48 -30 -19 -44 41 l-7 29 25 -24 c14 -13 26 -34 26 -46z
m377 -271 c-1 -53 -3 -7 -3 103 0 110 2 154 3 97 2 -57 2 -147 0 -200z m413
240 c0 -5 -11 -14 -24 -22 -21 -11 -23 -15 -11 -27 16 -16 64 -8 71 12 3 7 15
13 27 14 55 3 72 7 79 15 7 10 78 -55 78 -72 0 -5 -54 -8 -137 -5 -76 2 -153
3 -171 3 l-33 -1 18 27 c26 41 103 82 103 56z m-493 -44 c-3 -7 -5 -2 -5 12 0
14 2 19 5 13 2 -7 2 -19 0 -25z m-270 -20 c-3 -7 -5 -2 -5 12 0 14 2 19 5 13
2 -7 2 -19 0 -25z m270 -195 c-2 -37 -3 -9 -3 62 0 72 1 102 3 68 2 -34 2 -93
0 -130z m703 135 c0 -6 6 -8 14 -5 10 4 12 0 9 -14 -4 -15 -9 -17 -16 -10 -6
6 -47 11 -91 11 -56 0 -76 -3 -66 -10 12 -8 9 -10 -13 -10 -34 0 -63 -14 -99
-48 -23 -21 -28 -35 -28 -71 0 -40 -1 -43 -13 -27 -13 18 -14 18 -20 2 -4 -10
-4 -22 -1 -28 4 -6 1 -9 -7 -6 -17 6 -25 143 -10 162 6 7 8 21 5 33 -7 24 14
42 26 23 5 -8 13 -9 21 -4 20 13 63 12 72 0 6 -8 10 -7 14 2 2 6 11 12 19 12
8 0 14 -6 14 -12 0 -9 3 -10 8 -2 9 13 72 14 72 1 0 -5 7 -4 15 3 12 10 18 10
30 0 12 -10 15 -10 15 3 0 10 6 14 15 11 8 -4 15 -11 15 -16z m-1018 -20 c-7
-7 -12 -8 -12 -2 0 14 12 26 19 19 2 -3 -1 -11 -7 -17z m981 -14 l37 -7 0 -68
c0 -37 -4 -70 -9 -73 -8 -5 -26 69 -22 89 2 5 -1 7 -5 3 -4 -5 -12 2 -18 15
-7 13 -23 23 -40 25 -22 3 -26 6 -15 13 17 10 23 11 72 3z m-694 -47 c1 -5 -3
-5 -9 -2 -5 3 -10 16 -9 28 0 21 1 21 9 2 5 -11 9 -24 9 -28z m761 -58 c0 -46
-4 -79 -10 -79 -6 0 -10 35 -10 86 0 54 4 83 10 79 6 -3 10 -42 10 -86z m93
20 c-3 -10 -9 -17 -12 -14 -4 2 -8 -3 -8 -11 0 -8 5 -13 12 -11 6 3 12 -4 12
-14 2 -21 -16 -27 -18 -6 -1 6 -5 -1 -9 -18 -6 -21 -8 -5 -8 54 0 82 1 84 18
61 9 -13 15 -31 13 -41z m-521 -32 c0 -39 -1 -75 -1 -78 -1 -4 -9 -9 -19 -11
-15 -4 -18 2 -18 38 0 49 12 59 19 17 2 -16 5 5 6 46 0 41 4 71 8 68 4 -4 6
-40 5 -80z m324 29 c32 -32 34 -38 34 -102 0 -62 -1 -66 -15 -48 -13 16 -16
17 -25 4 -8 -13 -10 -13 -10 3 0 9 5 17 11 17 21 0 4 45 -18 48 -19 3 -23 -1
-23 -23 0 -17 -10 -35 -26 -48 -21 -16 -25 -26 -20 -49 3 -18 2 -27 -4 -23 -6
3 -10 15 -10 26 0 10 -4 19 -10 19 -15 0 -12 30 3 31 10 0 10 2 0 6 -7 2 -13
9 -13 15 0 5 -7 16 -16 25 -17 17 -30 9 -36 -21 -1 -11 -9 -21 -15 -24 -17 -5
-18 80 -2 111 22 44 61 67 113 67 41 0 53 -5 82 -34z m214 -86 c0 -5 -4 -10
-10 -10 -5 0 -10 5 -10 10 0 6 5 10 10 10 6 0 10 -4 10 -10z m-443 -32 c-3 -7
-5 -2 -5 12 0 14 2 19 5 13 2 -7 2 -19 0 -25z m-390 0 c-3 -8 -6 -5 -6 6 -1
11 2 17 5 13 3 -3 4 -12 1 -19z m690 0 c-3 -8 -6 -5 -6 6 -1 11 2 17 5 13 3
-3 4 -12 1 -19z m-396 -31 c-10 -9 -11 -8 -5 6 3 10 9 15 12 12 3 -3 0 -11 -7
-18z m587 -42 l-3 -27 -24 32 c-19 26 -21 34 -10 41 20 12 41 -13 37 -46z
m-468 15 c0 -5 -2 -10 -4 -10 -3 0 -8 5 -11 10 -3 6 -1 10 4 10 6 0 11 -4 11
-10z m-94 -100 c-9 -92 -15 -122 -27 -115 -5 3 -23 -2 -41 -11 -21 -10 -28
-11 -20 -3 6 7 12 27 12 44 0 39 12 57 33 49 25 -9 20 11 -5 24 -22 11 -22 12
7 9 27 -2 30 1 33 30 3 31 2 33 -26 27 -24 -5 -32 -2 -41 15 -14 25 3 29 17 4
13 -22 44 -10 35 14 -6 16 -5 17 11 3 16 -12 17 -24 12 -90z m-31 80 c3 -5 1
-10 -4 -10 -6 0 -11 5 -11 10 0 6 2 10 4 10 3 0 8 -4 11 -10z m-520 -10 c3 -5
2 -10 -4 -10 -5 0 -13 5 -16 10 -3 6 -2 10 4 10 5 0 13 -4 16 -10z m72 4 c-3
-3 -12 -4 -19 -1 -8 3 -5 6 6 6 11 1 17 -2 13 -5z m1193 -84 c17 -34 18 -40 5
-40 -16 0 -21 -25 -6 -34 5 -4 9 -42 8 -85 0 -61 -3 -78 -14 -74 -8 3 -11 15
-9 30 3 13 -4 40 -15 60 -15 26 -18 44 -13 67 11 45 15 68 17 94 1 12 3 22 4
22 2 0 12 -18 23 -40z m-150 -60 c-6 -10 -9 1 -9 35 1 48 1 49 9 15 5 -19 4
-41 0 -50z m-935 20 c3 -5 1 -10 -4 -10 -6 0 -11 5 -11 10 0 6 2 10 4 10 3 0
8 -4 11 -10z m732 -82 c-2 -13 -4 -3 -4 22 0 25 2 35 4 23 2 -13 2 -33 0 -45z
m-249 5 c11 -46 4 -54 -38 -43 l-25 6 23 6 c12 4 22 10 21 15 -3 17 1 66 5 62
3 -3 9 -23 14 -46z m-638 33 c0 -2 -8 -10 -17 -17 -16 -13 -17 -12 -4 4 13 16
21 21 21 13z m1112 -8 c-14 -14 -16 -58 -3 -58 5 0 12 10 14 23 3 13 5 6 6
-17 l1 -39 -21 19 c-12 10 -27 31 -35 46 -13 25 -12 27 9 31 39 8 41 7 29 -5z
m-1095 -30 c-3 -8 -6 -5 -6 6 -1 11 2 17 5 13 3 -3 4 -12 1 -19z m176 -58 l18
-29 -27 -7 c-36 -9 -56 5 -73 51 -14 35 -13 39 5 52 17 13 21 11 39 -11 11
-14 28 -39 38 -56z m92 50 c8 -16 15 -31 15 -34 0 -6 -23 -2 -37 7 -22 14 -14
-7 17 -45 26 -31 27 -35 10 -31 -18 5 -80 72 -80 86 0 3 12 7 28 9 19 2 27 8
26 21 -2 24 3 21 21 -13z m468 -10 c4 0 5 5 2 10 -3 6 -2 10 3 10 5 0 12 -9
15 -20 4 -17 0 -20 -29 -20 -37 0 -37 0 -28 25 5 12 10 13 17 6 6 -6 15 -11
20 -11z m-843 0 c-8 -5 -19 -10 -25 -10 -5 0 -3 5 5 10 8 5 20 10 25 10 6 0 3
-5 -5 -10z m1045 -11 c11 -17 -1 -21 -15 -4 -8 9 -8 15 -2 15 6 0 14 -5 17
-11z m-1110 -21 c-11 -6 -26 -17 -32 -26 -19 -23 -25 -9 -7 16 8 12 25 22 37
22 21 -1 22 -1 2 -12z m1015 -23 c5 -3 7 -11 4 -18 -3 -9 -40 -11 -137 -9
-122 2 -193 15 -183 31 5 8 303 4 316 -4z m280 -15 c0 -6 -9 -2 -20 7 -11 10
-20 19 -20 21 0 1 9 -2 20 -8 11 -6 20 -15 20 -20z m210 26 c0 -2 -7 -7 -16
-10 -8 -3 -12 -2 -9 4 6 10 25 14 25 6z m-840 -16 c-11 -7 -11 -10 -2 -10 7 0
11 -4 8 -8 -2 -4 -20 -7 -38 -6 -18 1 -42 2 -52 3 -29 2 -14 11 35 20 60 12
66 12 49 1z m920 -13 c0 -7 -7 -20 -14 -30 -12 -16 -13 -14 -11 15 4 41 3 40
15 33 6 -3 10 -12 10 -18z m-1036 -2 c3 -8 1 -15 -3 -15 -5 0 -11 7 -15 15 -3
8 -1 15 3 15 5 0 11 -7 15 -15z m685 -1 c2 -2 -14 -4 -37 -4 -35 0 -40 -3 -36
-17 5 -14 4 -15 -4 -4 -5 7 -14 11 -20 7 -6 -3 -17 -3 -26 0 -15 6 -15 8 1 19
16 12 108 11 122 -1z m36 -2 c-3 -3 -11 0 -18 7 -9 10 -8 11 6 5 10 -3 15 -9
12 -12z m-1088 -12 c-1 -21 -12 -26 -22 -10 -3 6 -1 10 5 10 6 0 8 5 5 10 -3
6 -2 10 4 10 5 0 9 -9 8 -20z m156 -70 c0 -33 -3 -63 -6 -67 -4 -3 -7 6 -7 20
0 15 -5 27 -11 27 -8 0 -9 12 -4 37 14 77 28 68 28 -17z m-468 50 c-3 -5 -16
-10 -28 -9 -20 1 -20 2 3 9 14 4 26 8 28 9 2 1 0 -3 -3 -9z m754 1 c11 -7 10
-11 -7 -20 -29 -15 -75 -14 -69 2 2 6 11 11 20 9 8 -1 18 2 22 8 8 12 16 12
34 1z m304 -17 c-5 -13 -20 -15 -79 -12 -41 2 -75 -1 -77 -6 -1 -4 -8 -2 -15
6 -10 13 0 15 74 16 47 0 88 3 92 6 10 10 12 7 5 -10z m214 10 c-3 -3 -12 -4
-19 -1 -8 3 -5 6 6 6 11 1 17 -2 13 -5z m250 -26 c-3 -7 -5 -2 -5 12 0 14 2
19 5 13 2 -7 2 -19 0 -25z m-187 2 c0 -4 -7 -11 -16 -14 -13 -5 -14 -4 -6 7 7
8 8 18 4 22 -4 5 -1 5 6 1 6 -4 12 -11 12 -16z m-45 0 c-3 -5 -12 -10 -18 -10
-7 0 -6 4 3 10 19 12 23 12 15 0z m-1165 -26 c0 -8 -4 -12 -10 -9 -5 3 -10 10
-10 16 0 5 5 9 10 9 6 0 10 -7 10 -16z m111 -10 c11 -14 10 -18 -6 -30 -23
-17 -40 -4 -30 25 8 25 18 27 36 5z m1125 7 c5 -5 18 -11 29 -13 16 -3 17 -5
4 -10 -8 -3 -26 3 -40 13 -13 10 -19 19 -13 19 5 0 14 -4 20 -9z m-71 -25 c0
-10 11 -24 25 -31 14 -8 20 -14 13 -15 -18 0 -74 51 -67 61 9 15 29 4 29 -15z
m-579 -2 c-3 -9 -6 -17 -6 -19 0 -2 -10 -1 -21 2 -21 6 -21 7 -4 20 25 18 38
17 31 -3z m408 -7 c15 -11 7 -13 -53 -12 -73 1 -86 -6 -51 -27 30 -19 25 -25
-25 -33 -25 -3 -43 -10 -40 -16 4 -5 2 -9 -4 -9 -5 0 -16 -3 -24 -6 -10 -3
-16 3 -19 20 -5 22 -2 26 21 27 17 1 20 3 9 6 -15 4 -13 9 13 32 26 24 40 29
93 30 37 1 69 -4 80 -12z m436 3 c0 -5 -19 -9 -42 -9 l-43 2 40 7 c22 4 41 8
43 9 1 0 2 -3 2 -9z m-965 -20 c3 -5 1 -10 -4 -10 -6 0 -11 5 -11 10 0 6 2 10
4 10 3 0 8 -4 11 -10z m-315 -28 c27 3 44 -15 19 -20 -26 -5 -69 17 -69 35 0
16 1 16 13 -1 8 -10 22 -16 37 -14z m167 16 c-2 -7 0 -23 4 -36 6 -14 5 -21 0
-17 -5 3 -12 -3 -15 -12 -4 -15 -4 -14 -3 2 1 11 -2 26 -6 32 -5 7 -2 19 5 27
16 19 21 20 15 4z m-87 -90 l-5 -63 -3 49 c-3 43 2 76 10 76 2 0 1 -28 -2 -62z
m953 49 c126 0 224 -4 219 -9 -5 -5 -117 -11 -250 -15 l-241 -6 6 22 c4 16 10
20 22 15 9 -4 118 -7 244 -7z m-926 -29 c-3 -7 -5 -2 -5 12 0 14 2 19 5 13 2
-7 2 -19 0 -25z m1390 -8 c-13 -18 -15 -19 -21 -4 -8 21 13 49 27 35 6 -6 4
-17 -6 -31z m-969 5 c-3 -3 -9 2 -12 12 -6 14 -5 15 5 6 7 -7 10 -15 7 -18z
m-798 5 c-8 -5 -28 -9 -45 -9 -29 1 -29 1 -5 9 14 4 34 8 45 9 16 1 17 -1 5
-9z m259 -23 c46 -14 73 -44 51 -57 -9 -5 -9 -9 -1 -14 15 -10 14 -36 -2 -36
-18 0 -106 73 -107 88 0 7 -4 10 -10 7 -11 -7 -14 8 -3 18 9 10 22 9 72 -6z
m671 -41 c0 -6 -5 -4 -10 4 -7 11 -10 4 -10 -27 0 -31 4 -43 18 -46 13 -4 11
-5 -5 -6 -22 -1 -23 3 -23 62 1 57 2 60 15 43 8 -11 15 -25 15 -30z m208 7
c-10 -2 -26 -2 -35 0 -10 3 -2 5 17 5 19 0 27 -2 18 -5z m-84 -110 l7 -53 -36
0 -36 0 3 47 c2 31 8 48 18 50 13 4 13 3 0 -6 -12 -9 -11 -11 8 -11 14 0 22 6
22 17 0 31 7 8 14 -44z m-653 30 c13 -17 13 -17 -6 -3 -11 8 -22 16 -24 17 -2
2 0 3 6 3 6 0 17 -8 24 -17z m-61 -18 c0 -20 -25 -30 -47 -20 -17 8 -17 8 0
12 9 3 17 9 17 14 0 5 7 9 15 9 8 0 15 -7 15 -15z m576 -42 c-5 -15 -17 -19
-68 -19 -48 -1 -52 0 -15 3 26 2 47 9 47 14 0 6 5 7 10 4 6 -3 13 1 16 10 9
22 17 11 10 -12z m244 2 c0 -11 20 -15 83 -18 l82 -3 -96 -2 c-88 -2 -97 0
-102 18 -3 10 0 21 7 23 15 6 26 -2 26 -18z m250 -16 c0 -5 -6 -6 -13 -3 -8 3
-14 11 -14 19 0 11 4 12 14 4 7 -6 13 -15 13 -20z m120 -7 c-12 -2 -29 -1 -38
3 -15 6 -15 8 2 21 17 12 22 12 39 -4 19 -17 19 -17 -3 -20z m-971 4 c-9 -8
-24 -10 -44 -5 l-30 7 32 1 c17 0 35 6 38 12 4 6 10 8 13 4 3 -3 -1 -11 -9
-19z m-146 -3 c-7 -2 -19 -2 -25 0 -7 3 -2 5 12 5 14 0 19 -2 13 -5z m340 0
c-13 -2 -33 -2 -45 0 -13 2 -3 4 22 4 25 0 35 -2 23 -4z m604 1 c-3 -3 -12 -4
-19 -1 -8 3 -5 6 6 6 11 1 17 -2 13 -5z"/>
<path d="M1197 1224 c-4 -4 -7 -14 -7 -23 0 -11 3 -12 11 -4 6 6 10 16 7 23
-2 6 -7 8 -11 4z"/>
<path d="M1220 1219 c0 -5 5 -7 10 -4 6 3 10 8 10 11 0 2 -4 4 -10 4 -5 0 -10
-5 -10 -11z"/>
<path d="M1160 1200 c0 -11 5 -20 10 -20 6 0 10 9 10 20 0 11 -4 20 -10 20 -5
0 -10 -9 -10 -20z"/>
<path d="M990 1190 c0 -5 5 -10 11 -10 5 0 7 5 4 10 -3 6 -8 10 -11 10 -2 0
-4 -4 -4 -10z"/>
<path d="M970 1100 c0 -5 19 -10 43 -10 33 -1 38 -3 25 -11 -10 -5 -18 -15
-18 -21 0 -6 10 -2 23 10 13 12 28 22 35 22 6 0 14 5 17 10 4 6 -18 10 -59 10
-37 0 -66 -4 -66 -10z"/>
<path d="M973 995 c-3 -9 -3 -18 -1 -21 3 -3 8 4 11 16 6 23 -1 27 -10 5z"/>
<path d="M870 651 c0 -25 6 -27 13 -6 4 8 2 17 -3 20 -6 4 -10 -3 -10 -14z"/>
</g>
</svg>
